<?xml version="1.0" standalone="no"?>
<!DOCTYPE svg PUBLIC "-//W3C//DTD SVG 20010904//EN"
 "http://www.w3.org/TR/2001/REC-SVG-20010904/DTD/svg10.dtd">
<svg version="1.0" xmlns="http://www.w3.org/2000/svg"
 width="867.000000pt" height="512.000000pt" viewBox="0 0 867.000000 512.000000"
 preserveAspectRatio="xMidYMid meet">

<g transform="translate(0.000000,512.000000) scale(0.100000,-0.100000)"
fill="#000000" stroke="none">
<path d="M4471 3426 c-14 -8 -28 -22 -32 -32 -11 -29 -10 -859 1 -937 24 -165
143 -279 292 -281 74 -1 97 14 98 65 0 41 -32 67 -95 74 -62 8 -104 36 -133
89 -15 28 -18 83 -22 513 -5 523 -3 505 -60 517 -14 3 -36 0 -49 -8z"/>
<path d="M1090 3092 c-74 -25 -125 -59 -188 -126 -104 -110 -122 -183 -122
-506 0 -245 0 -247 23 -268 29 -27 78 -29 100 -4 15 16 17 48 17 243 0 124 5
252 11 285 52 288 422 346 550 87 23 -46 24 -59 29 -321 5 -273 5 -274 29
-293 34 -28 75 -24 101 8 20 26 21 34 17 292 -3 243 -6 271 -25 325 -46 124
-115 201 -231 259 -57 28 -76 32 -160 34 -72 2 -110 -2 -151 -15z"/>
<path d="M3718 3091 c-119 -38 -236 -141 -288 -253 -89 -191 -47 -404 106
-547 71 -67 111 -90 193 -115 61 -18 174 -21 240 -5 149 34 299 171 343 312
81 263 -70 545 -327 612 -79 20 -196 18 -267 -4z m283 -155 c250 -118 251
-481 1 -603 -49 -24 -69 -28 -142 -27 -72 0 -94 4 -141 27 -63 31 -126 93
-160 159 -17 32 -24 66 -27 130 -4 77 -2 92 22 145 80 175 277 250 447 169z"/>
<path d="M5220 3096 c-157 -45 -278 -159 -329 -313 -30 -89 -29 -215 3 -305
95 -270 402 -395 656 -268 30 16 69 40 85 54 17 14 33 26 38 26 4 0 7 -18 7
-40 0 -75 76 -108 120 -53 21 27 22 34 18 283 -4 239 -5 259 -27 315 -78 198
-247 317 -450 314 -42 0 -96 -6 -121 -13z m269 -161 c164 -82 231 -273 154
-436 -54 -116 -150 -184 -276 -196 -139 -13 -276 72 -334 207 -23 56 -28 158
-10 221 29 99 113 185 217 223 67 24 181 16 249 -19z"/>
<path d="M6285 3097 c-145 -48 -239 -139 -295 -282 -22 -56 -24 -76 -28 -325
-4 -260 -3 -266 18 -292 24 -32 63 -37 97 -13 20 14 21 25 26 277 5 302 11
326 84 408 64 72 118 95 218 94 63 0 89 -5 122 -22 57 -30 105 -79 134 -138
23 -47 24 -59 29 -322 5 -273 5 -274 29 -293 32 -26 67 -24 97 7 l26 25 -4
262 c-4 235 -7 269 -26 329 -25 74 -90 169 -145 211 -76 58 -144 81 -247 84
-60 2 -110 -2 -135 -10z"/>
<path d="M7265 3091 c-198 -57 -335 -243 -335 -456 0 -367 399 -596 714 -409
72 43 78 38 74 -63 -3 -62 -7 -76 -34 -110 -16 -21 -50 -48 -74 -61 -42 -21
-55 -22 -225 -20 -175 3 -182 2 -230 -22 -61 -31 -83 -67 -63 -107 21 -43 59
-51 114 -23 45 22 53 23 168 15 67 -4 148 -7 181 -6 111 4 218 73 270 177 28
55 30 67 30 169 0 97 -3 116 -24 158 l-25 47 27 58 c64 135 60 279 -10 420
-98 195 -340 296 -558 233z m279 -154 c69 -32 130 -94 164 -167 36 -79 36
-192 -1 -270 -33 -70 -95 -133 -166 -168 -47 -22 -69 -27 -136 -27 -70 0 -89
4 -146 32 -109 54 -175 149 -186 268 -7 78 9 141 52 210 36 56 63 82 119 114
85 49 204 52 300 8z"/>
<path d="M3213 3089 c-62 -12 -161 -62 -215 -109 -62 -53 -123 -147 -147 -224
-21 -69 -24 -113 -22 -368 1 -164 3 -180 21 -198 25 -25 61 -26 91 -1 24 19
24 22 29 263 5 237 6 244 32 300 54 116 168 196 294 206 54 4 68 9 84 30 25
32 25 53 -1 86 -18 22 -28 26 -72 25 -29 -1 -71 -5 -94 -10z"/>
<path d="M1821 2984 c-46 -58 -9 -136 64 -136 73 0 110 78 64 136 -16 21 -29
26 -64 26 -35 0 -48 -5 -64 -26z"/>
<path d="M2521 2984 c-47 -60 -10 -136 65 -136 46 0 84 37 84 83 0 72 -105
109 -149 53z"/>
<path d="M1815 2690 c-15 -17 -17 -33 -13 -109 5 -77 11 -102 41 -166 40 -83
105 -155 180 -199 114 -67 280 -74 398 -18 149 71 249 235 249 407 0 79 -17
105 -70 105 -51 0 -66 -23 -74 -115 -14 -171 -135 -295 -286 -295 -152 0 -285
133 -297 297 -7 89 -22 113 -72 113 -25 0 -44 -7 -56 -20z"/>
<path d="M824 1887 c-2 -7 -3 -71 -2 -143 3 -107 6 -129 18 -129 12 0 16 20
20 104 l5 104 84 -107 c46 -58 90 -106 98 -106 10 0 13 30 13 146 0 133 -1
145 -17 142 -15 -3 -19 -18 -23 -102 l-5 -99 -83 102 c-82 100 -98 113 -108
88z"/>
<path d="M1260 1755 l0 -146 98 3 c78 2 97 6 97 18 0 12 -17 16 -77 18 l-78 3
0 44 0 44 63 3 c47 2 62 7 62 18 0 11 -15 16 -62 18 l-63 3 0 39 0 39 78 3
c60 2 77 6 77 18 0 12 -19 16 -97 18 l-98 3 0 -146z"/>
<path d="M1630 1803 c0 -80 4 -104 20 -130 37 -62 116 -81 178 -43 48 30 63
75 60 178 -3 73 -6 87 -20 90 -16 3 -18 -6 -18 -91 0 -88 -2 -98 -26 -126 -20
-24 -34 -31 -62 -31 -71 1 -92 37 -92 159 0 84 -1 91 -20 91 -19 0 -20 -7 -20
-97z"/>
<path d="M2075 1888 c-3 -8 -4 -72 -3 -144 3 -107 6 -129 18 -129 10 0 16 12
18 38 3 34 5 37 36 37 24 0 41 -9 70 -40 21 -22 42 -40 46 -40 23 0 19 25 -8
53 l-31 32 30 33 c41 46 38 104 -9 152 -22 21 -160 28 -167 8z m145 -48 c46
-46 2 -114 -69 -108 l-36 3 -3 63 -3 62 46 0 c32 0 51 -6 65 -20z"/>
<path d="M2546 1892 c-3 -5 -30 -66 -61 -137 -35 -82 -52 -132 -45 -139 11
-11 37 8 45 35 6 16 16 19 81 19 54 0 74 -3 74 -13 0 -7 6 -22 14 -33 11 -14
18 -16 26 -8 8 9 -3 46 -46 148 -53 123 -73 152 -88 128z m59 -161 c6 -20 3
-21 -44 -21 -28 0 -51 2 -51 5 0 2 11 30 26 62 l25 58 18 -41 c10 -23 22 -51
26 -63z"/>
<path d="M2857 1881 c-3 -14 -2 -190 2 -258 1 -10 27 -13 96 -13 88 0 95 2 95
20 0 17 -8 19 -77 22 l-78 3 2 95 c1 52 -1 107 -4 123 -6 31 -28 36 -36 8z"/>
<path d="M3447 1893 c-9 -8 -9 -246 -1 -267 3 -9 12 -16 20 -16 11 0 14 21 14
100 0 55 4 100 9 100 4 0 45 -45 90 -101 46 -55 88 -98 94 -96 8 2 12 46 12
143 0 124 -2 139 -17 142 -16 3 -18 -7 -18 -97 0 -56 -4 -101 -9 -101 -5 0
-15 10 -24 23 -8 12 -23 32 -33 44 -11 12 -39 47 -63 77 -42 53 -59 65 -74 49z"/>
<path d="M3882 1758 l3 -143 98 -3 c92 -3 97 -2 97 18 0 18 -6 20 -80 20 l-80
0 0 45 0 45 65 0 c58 0 65 2 65 20 0 18 -7 20 -65 20 l-65 0 0 40 0 39 83 3
c65 2 82 6 82 18 0 12 -19 16 -103 18 l-103 3 3 -143z"/>
<path d="M4230 1881 c0 -17 8 -20 46 -23 l47 -3 -2 -105 c-2 -113 3 -140 25
-140 11 0 14 23 14 113 0 61 4 117 8 124 4 6 25 13 47 15 27 2 40 8 40 18 0
12 -20 16 -112 18 -107 3 -113 2 -113 -17z"/>
<path d="M4638 1880 c-54 -42 -27 -118 47 -135 40 -10 75 -32 75 -50 0 -43
-69 -59 -113 -25 -50 39 -68 8 -21 -35 40 -37 106 -35 145 4 47 47 33 106 -31
130 -16 6 -43 16 -60 22 -33 13 -42 52 -14 63 25 9 72 7 79 -4 7 -12 45 -14
45 -2 -2 47 -106 69 -152 32z"/>
<path d="M5412 1758 c3 -119 5 -143 18 -143 11 0 16 14 18 58 l3 57 59 0 c47
0 60 3 60 15 0 15 -10 17 -82 18 l-38 1 0 47 0 48 78 3 c60 2 77 6 77 18 0 12
-19 16 -98 18 l-98 3 3 -143z"/>
<path d="M5767 1769 c-32 -72 -56 -137 -53 -145 9 -23 27 -16 39 16 11 29 13
30 83 30 70 0 72 -1 84 -30 14 -33 40 -41 40 -11 0 29 -107 266 -122 269 -9 2
-34 -44 -71 -129z m93 15 c29 -68 27 -74 -25 -74 -25 0 -45 4 -45 9 0 10 41
111 46 111 2 0 12 -21 24 -46z"/>
<path d="M6145 1875 c-29 -29 -33 -75 -7 -98 9 -8 39 -24 66 -34 27 -10 54
-26 60 -35 29 -46 -62 -80 -103 -39 -37 37 -69 20 -38 -20 37 -48 115 -53 158
-10 57 57 28 118 -67 142 -47 12 -65 39 -44 64 14 17 76 20 85 5 8 -14 45 -13
45 1 0 23 -45 48 -88 49 -33 0 -49 -6 -67 -25z"/>
<path d="M6458 1894 c-17 -17 7 -34 48 -34 l43 0 3 -122 c3 -101 6 -123 18
-123 12 0 15 21 18 122 l3 122 47 3 c34 2 47 7 47 18 0 12 -20 16 -111 18 -60
1 -113 0 -116 -4z"/>
<path d="M4969 1644 c-9 -11 -9 -18 -1 -26 14 -14 42 -3 42 16 0 20 -27 27
-41 10z"/>
</g>
</svg>
