<?xml version="1.0" standalone="no"?>
<!DOCTYPE svg PUBLIC "-//W3C//DTD SVG 20010904//EN"
 "http://www.w3.org/TR/2001/REC-SVG-20010904/DTD/svg10.dtd">
<svg version="1.0" xmlns="http://www.w3.org/2000/svg"
 width="766.000000pt" height="218.000000pt" viewBox="0 0 766.000000 218.000000"
 preserveAspectRatio="xMidYMid meet">

<g transform="translate(0.000000,218.000000) scale(0.100000,-0.100000)"
fill="#000000" stroke="none">
<path d="M3999 1945 c-16 -9 -29 -26 -33 -46 -10 -50 -6 -836 4 -916 16 -125
82 -218 189 -266 64 -29 164 -30 185 -2 32 42 4 115 -45 115 -74 0 -147 42
-173 100 -7 17 -13 180 -16 507 -5 523 -3 505 -60 517 -14 3 -37 -1 -51 -9z"/>
<path d="M608 1606 c-73 -26 -121 -60 -185 -129 -96 -104 -113 -179 -113 -498
0 -244 0 -246 23 -267 29 -27 78 -29 100 -4 15 16 17 48 17 238 0 120 5 247
10 282 17 104 73 181 165 230 66 35 188 38 250 5 54 -28 109 -85 137 -142 22
-44 23 -59 28 -319 5 -273 5 -274 29 -293 31 -25 73 -24 97 2 17 19 19 41 22
253 3 258 -7 337 -55 436 -37 75 -113 149 -197 190 -62 31 -80 35 -165 38 -82
2 -106 -1 -163 -22z"/>
<path d="M3247 1610 c-220 -70 -364 -302 -328 -524 18 -108 68 -201 146 -275
74 -69 118 -94 202 -116 163 -42 323 -1 449 117 230 215 186 590 -88 755 -104
63 -264 81 -381 43z m283 -152 c72 -33 140 -107 170 -184 28 -74 25 -184 -7
-256 -30 -65 -95 -133 -162 -165 -48 -24 -68 -28 -141 -27 -100 1 -150 20
-220 82 -71 62 -103 130 -108 227 -3 65 0 91 18 139 36 94 117 171 213 202 62
20 170 12 237 -18z"/>
<path d="M4750 1616 c-112 -31 -218 -109 -278 -204 -55 -86 -75 -163 -70 -277
5 -116 27 -183 86 -260 143 -188 387 -248 592 -145 30 16 69 40 85 54 17 14
33 26 38 26 4 0 7 -18 7 -40 0 -74 66 -105 116 -55 l25 26 -3 257 c-3 242 -5
261 -27 317 -60 151 -180 263 -326 301 -62 17 -185 17 -245 0z m269 -160 c209
-106 250 -375 83 -539 -175 -172 -466 -100 -546 136 -61 179 50 377 239 428
57 16 168 3 224 -25z"/>
<path d="M5805 1613 c-168 -60 -277 -190 -306 -363 -5 -30 -9 -157 -9 -281 0
-214 1 -228 21 -253 15 -19 30 -26 53 -26 63 0 65 6 74 315 8 280 8 280 35
326 62 104 149 154 267 153 113 -1 195 -51 245 -151 l30 -58 5 -273 c5 -273 5
-274 29 -293 32 -26 67 -24 97 7 l26 25 -4 262 c-4 234 -7 269 -26 327 -41
123 -120 213 -238 267 -78 36 -221 43 -299 16z"/>
<path d="M6810 1616 c-311 -84 -451 -455 -273 -723 142 -214 444 -278 656
-137 51 33 59 23 55 -72 -4 -78 -26 -120 -90 -166 -32 -22 -40 -23 -228 -23
-188 0 -197 -1 -245 -25 -61 -31 -83 -67 -63 -107 21 -43 57 -50 120 -23 50
21 60 22 173 14 168 -11 221 -7 282 21 126 57 195 173 194 322 -1 82 -7 111
-38 170 -16 30 -16 33 11 93 143 318 -87 672 -433 669 -42 0 -96 -6 -121 -13z
m276 -166 c115 -56 179 -167 178 -305 -2 -123 -79 -241 -193 -293 -45 -21 -72
-26 -136 -27 -71 0 -88 4 -146 32 -74 37 -116 78 -154 152 -58 116 -38 274 48
370 32 35 121 90 164 101 71 18 167 6 239 -30z"/>
<path d="M2743 1609 c-163 -32 -325 -186 -369 -353 -10 -36 -14 -120 -14 -293
0 -239 0 -242 22 -257 30 -21 61 -20 89 3 24 19 24 22 29 263 5 237 6 244 32
300 54 115 164 193 292 205 55 5 70 10 86 31 25 32 25 53 -1 86 -18 22 -28 26
-72 25 -29 -1 -71 -5 -94 -10z"/>
<path d="M1351 1504 c-46 -58 -9 -136 64 -136 73 0 110 78 64 136 -16 21 -29
26 -64 26 -35 0 -48 -5 -64 -26z"/>
<path d="M2055 1505 c-55 -54 -18 -135 62 -135 47 0 71 22 79 71 13 78 -84
122 -141 64z"/>
<path d="M1347 1212 c-20 -21 -23 -120 -7 -189 46 -199 228 -343 433 -343 120
0 217 42 301 129 29 32 63 76 75 99 47 92 66 256 35 300 -11 15 -25 22 -50 22
-53 0 -70 -25 -77 -110 -12 -141 -89 -249 -203 -285 -182 -57 -366 80 -381
284 -7 87 -22 111 -72 111 -24 0 -44 -7 -54 -18z"/>
<path d="M352 278 c3 -119 5 -143 18 -143 12 0 16 20 20 102 l5 103 85 -105
c47 -58 91 -105 98 -105 9 0 12 36 12 146 0 133 -1 145 -17 142 -15 -3 -19
-18 -23 -102 l-5 -99 -83 102 c-46 55 -90 101 -98 101 -12 0 -14 -22 -12 -142z"/>
<path d="M790 275 l0 -146 98 3 c78 2 97 6 97 18 0 12 -17 16 -77 18 l-78 3 0
44 0 44 63 3 c47 2 62 7 62 18 0 11 -15 16 -62 18 l-63 3 0 39 0 39 78 3 c60
2 77 6 77 18 0 12 -19 16 -97 18 l-98 3 0 -146z"/>
<path d="M1160 323 c0 -80 4 -104 20 -130 37 -62 116 -81 178 -43 48 30 63 75
60 178 -3 73 -6 87 -20 90 -16 3 -18 -6 -18 -91 0 -88 -2 -98 -26 -126 -20
-24 -34 -31 -62 -31 -71 1 -92 37 -92 159 0 84 -1 91 -20 91 -19 0 -20 -7 -20
-97z"/>
<path d="M1604 407 c-2 -7 -3 -71 -2 -143 3 -107 6 -129 18 -129 10 0 16 12
18 38 3 35 5 37 36 37 26 0 41 -9 69 -40 19 -22 40 -40 46 -40 23 0 20 21 -8
52 l-29 33 29 33 c45 51 36 122 -21 155 -35 21 -148 24 -156 4z m146 -47 c51
-51 -1 -120 -81 -108 -22 3 -24 9 -27 66 l-3 62 46 0 c32 0 51 -6 65 -20z"/>
<path d="M2072 403 c-23 -43 -100 -230 -104 -248 -6 -34 31 -31 43 4 11 31 11
31 85 31 54 0 74 -3 74 -13 0 -7 6 -22 14 -33 11 -14 18 -16 26 -8 8 8 -4 47
-46 148 -56 132 -73 155 -92 119z m62 -151 c7 -21 4 -22 -38 -22 -25 0 -47 3
-49 8 -3 4 6 32 20 62 l25 55 18 -40 c9 -22 20 -50 24 -63z"/>
<path d="M2390 410 c-1 -5 -1 -62 -1 -125 0 -63 0 -124 1 -135 0 -19 7 -20 95
-20 88 0 95 2 95 20 0 17 -8 19 -77 22 l-78 3 3 80 c4 103 -5 165 -24 165 -8
0 -14 -4 -14 -10z"/>
<path d="M2976 404 c-9 -24 -7 -247 3 -263 20 -31 31 3 31 95 0 52 4 94 9 94
5 0 40 -40 79 -88 120 -150 124 -149 120 39 -3 118 -5 134 -20 137 -16 3 -18
-7 -18 -97 0 -56 -3 -101 -7 -101 -5 1 -44 46 -87 100 -79 99 -98 114 -110 84z"/>
<path d="M3412 278 l3 -143 98 -3 c92 -3 97 -2 97 18 0 18 -6 20 -80 20 l-80
0 0 45 0 45 65 0 c58 0 65 2 65 20 0 18 -7 20 -65 20 l-65 0 0 40 0 40 69 0
c80 0 102 6 94 26 -4 11 -28 14 -104 14 l-100 0 3 -142z"/>
<path d="M3760 401 c0 -16 8 -20 46 -23 l47 -3 -2 -105 c-2 -113 3 -140 25
-140 11 0 14 23 14 113 0 61 4 117 8 124 4 6 25 13 47 15 28 2 41 8 43 21 3
15 -7 17 -112 17 -108 0 -116 -1 -116 -19z"/>
<path d="M4166 399 c-52 -41 -24 -118 49 -134 40 -10 75 -32 75 -50 0 -43 -69
-59 -113 -25 -29 23 -47 26 -47 8 1 -34 53 -68 103 -68 29 0 46 7 68 29 47 47
33 106 -31 130 -16 6 -43 16 -60 22 -33 13 -42 52 -14 63 25 9 72 7 79 -4 7
-12 45 -14 45 -2 -1 48 -105 69 -154 31z"/>
<path d="M4940 275 c0 -134 1 -146 18 -143 13 2 18 15 20 61 l3 57 59 0 c47 0
60 3 60 15 0 14 -35 21 -97 17 -21 -1 -23 4 -23 48 l0 49 78 3 c60 2 77 6 77
18 0 12 -19 16 -97 18 l-98 3 0 -146z"/>
<path d="M5295 285 c-46 -107 -56 -138 -46 -148 10 -9 15 -8 27 7 8 11 14 26
14 33 0 10 20 13 74 13 72 0 74 0 86 -30 14 -33 40 -41 40 -12 0 30 -107 267
-122 270 -10 2 -33 -41 -73 -133z m95 19 c29 -68 27 -74 -25 -74 -25 0 -45 4
-45 9 0 10 41 111 46 111 2 0 12 -21 24 -46z"/>
<path d="M5675 395 c-32 -31 -33 -74 -2 -103 13 -12 29 -22 35 -22 6 0 30 -7
52 -16 31 -12 40 -22 40 -40 0 -44 -74 -60 -111 -23 -20 20 -49 20 -49 0 0 -5
14 -21 31 -35 44 -37 101 -36 140 3 57 57 31 114 -65 141 -49 13 -67 40 -46
65 14 17 76 20 85 5 9 -15 45 -12 45 4 0 22 -46 46 -90 46 -30 0 -47 -7 -65
-25z"/>
<path d="M5985 410 c-12 -19 6 -30 50 -30 l44 0 3 -122 c3 -101 6 -123 18
-123 12 0 15 21 18 122 l3 122 47 3 c34 2 47 7 47 18 0 12 -20 16 -112 18 -69
2 -114 -1 -118 -8z"/>
<path d="M4501 171 c-17 -11 -2 -41 20 -41 12 0 19 7 19 19 0 21 -21 33 -39
22z"/>
</g>
</svg>
